<mxfile host="Electron" modified="2023-09-01T19:30:08.871Z" agent="Mozilla/5.0 (Windows NT 10.0; Win64; x64) AppleWebKit/537.36 (KHTML, like Gecko) draw.io/21.6.5 Chrome/114.0.5735.243 Electron/25.3.1 Safari/537.36" etag="58yQs96s8cR3Bli8IdOL" version="21.6.5" type="device">
  <diagram name="PÃ¡gina-1" id="JGUmOOcyeDKXTIUd2W0r">
    <mxGraphModel dx="2087" dy="1384" grid="1" gridSize="10" guides="1" tooltips="1" connect="1" arrows="1" fold="1" page="0" pageScale="1" pageWidth="827" pageHeight="1169" math="0" shadow="0">
      <root>
        <mxCell id="0" />
        <mxCell id="1" parent="0" />
        <mxCell id="n09ZO745SL9mN2E3Q5h8-1" value="" style="shape=image;verticalLabelPosition=bottom;labelBackgroundColor=default;verticalAlign=top;aspect=fixed;imageAspect=0;image=data:image/png,iVBORw0KGgoAAAANSUhEUgAAAbYAAAF3CAYAAADJvW5hAAAAAXNSR0IArs4c6QAAAARnQU1BAACxjwv8YQUAAAAJcEhZcwAADsMAAA7DAcdvqGQAAEMiSURBVHhe7d17zE13vsfxH+JySgelbik9DFNBSo8GbRyX1lAOjT/c0j/c5iQUiWBEpRUVFXUSRKKUP8ojaUKYEPfOHHEJ05BqmCDtYUhU2jOnNGRCdZLG6fu312/Pb69n7f3s6/Psvfbnlew8v31Ze6299rN/3/X9XdZq1KpVqydGREQkJhoHf0VERGJBgU1ERGJFgU1ERGJFgU1ERGKlpINHPv74Y9O7d29bHjFihP1bKfxtD/vwww/N8ePHg3siIlJOKiJje+GFF8wbb7xhb88++2zwqIiISG0VEdgmTpxo3nnnHXsbOHBg8GhpnT9/3hw7dix5++qrr4JnRESknKmPLY0dO3aYdevWJW+3bt0KnhERkXJWlMA2a9Ys2yclqTZt2mSbT0VEpP7kHdjo91q2bJk5evSomTFjRtqBFtWsf//+tvl07969ZsGCBeofFBGpBzmPiiQDGTt2rK20w8IjH8OjIqnchw8fnqzgb9++bU6ePGmb/cJOnToVlLJDPxhNhg5Bl+3E5MmTzerVq+22fP/992bDhg3mhx9+MIsWLUo+RoCO2g7Hf79sR0WGP8OjR4/M5cuXzcGDB83nn38ePCoiIsXUpFmzZu8H5bQIRLNnzzZLly41Y8aMMZ06dQqeSVTWZ8+eNdu3bzd37twJHk0YP368ad++vS03atTIvPXWW6Zly5b2Plq3bm0GDBhgnn/+eXP69Ong0YSZM2cGpezcuHHDnDt3LrhnzNChQ02vXr1smeyyX79+tsz6CcoENP8xtoNgc+/ePftYmP9+fF7WV5eHDx+a5s2bJ/dX06ZNTdeuXc2oUaPMkCFD7H69dOmSfU5ERIojY2B75ZVXzPz5883cuXNtMPCDEkGAzOPdd9+1QSkc1OAHthYtWpgnT56YCxcu2BGGP//8c/K57t271woqHTt2tMGDm/9aXnflypXkc+5GJsRfxw9Ef/vb38y0adPML9mp6dOnj/0cBKd58+aZl156KRl4rl69mvIevnwC27Vr12xmd+TIEdO4cWO7foI5+DwE0ylTppjnnnvO3L17N21QFRGR7KUNbGvXrrVZExkGmQYIHp999plZs2aNDWpU3Jn4gY3MbuHChbbJj8zq8OHDKUHlp59+skHP4TXu1rdv32RQ+fTTT01NTU3K89zCgcYPRDt37rTPP/PMM/ZxMLCDQELAziZg5RPYHD47n23//v3m66+/Nk2aNLGBm/3KjfedMGGCzWqVwYmIFCbt4JG2bdsGJWP7webMmWMDE/1Q9Enl6tChQ7WWo1/M8bPB+kCAaQhknKtWrTLjxo2zAZqg53To0CEoiYhIvrIaFTly5EjbbMcgjHwxMlAS6PNbuXKl3Z9PPfVU8KiIiBRD2sC2ceNGm124jIImO/rbaEqkmVLzs3LDQBHm++3atcts27bNHiy4oMY+Jns9cOCAvS8iIvlLG9hoqlu+fLmdo0aTmWtGpDJmUImbn0XmwX2JRlbGgQD7in3ZrVu34BljB9Gwb2mWZKpCQzWPiojESZ1NkQQ0+tWooJm/RRbnkIWQeVBxk4lIKoIZWa4f+MnO2IccNDDaNNPcORERyV1WfWwOQ9epkBlIQtOZPxjEz0RKqXPnzkGp/LmJ6GBfkZ2RtbEP/QMEEREpnpwCm0OTGU1nZHFU1qU+8/3NmzeDUmIgix8w6guTrR3OnpItAhiZLvsq3xGlIiKSvbwCm4/KmiY1srhS4dRUbhALmeGWLVts3x6nueJGUyi3UvrTn/4UlBIT1zldmFs/c+KiRn2yT8jOdFFSEZH6U3Bgc0o58MH18zmub49zN3Ij0JR6AAufz28+5JRcbv2MGI3KIjUYRESk/hUtsJUaGREZEMGFkyf7yObq40KgZF/0LYbXz7rZroZoIhURkVQ5n91fRESknFVMxiYiIpINBTYREYkVBTYREYkVBTYREYkVBTYREYkVBTYREYkVBTYREYkVBTYREYkVBTYREYkVBTYREYkVBTYREYkVBTYREYkVBbYMuOYa14LjFkdvvPFG8vNxXTkRkThQYBMRkVhRYBMRkVhRYBMRkVhRYPvFrFmzbH+apNq0aZPthxMRqSRVG9heeOEFO2Di6NGjZsaMGaZ3797BM+L079/fvPPOO2bv3r1mwYIF5tlnnw2eEREpX41atWr1JChXBTKQsWPH2ko7bMSIEUEpgSzOBTyeo3IfPnx4soK/ffu2OXnypNmxY4e9nw5BdObMmaZnz57JZb///ntz5coVs3v3bvP111/bx6L42wCW+/bbb83169fNnj177P1MWN/ixYtT1n358mW73tatW9vAhWPHjpl169bZshMeDfro0SO77MGDB83nn38ePCoiUl6aNGvW7P2gHFtU6LNnzzZLly41Y8aMMZ06dQqeSVTWZ8+eNdu3bzd37twJHk0YP368ad++vS03atTIvPXWW6Zly5b2PggMAwYMMM8//7w5ffp08Ggqmjnfe+8907Vr15RlKXfv3t28/vrr5ubNm7XW7cybN880bdo0uJdYju3v06eP3b5MyxJQCYw9evRIWTfLv/rqqzYws/24ceOGOXfunC07Dx8+NM2bN0/uL7aDzzFq1CgzZMgQu18vXbpknxMRKRexztheeeUV8+abb9rs7KmnngoeTSDj+PLLL20zWzp+tvTVV1+Zdu3a2Szr8ePHNij5mdScOXNqZV6sf+3atcG9RIZ39epVW+7bt6/p1q2bLRNcaQ6Nyr7C88tYL8u5z8OyixYtisz6/O132db9+/dNmzZt7D65e/duchuiMjaHADZ16lQzaNCg5Osd3pegfuDAgYyZp4hIfYltYCOgEFh8VOxkGIcPH66zCQ9+YCAoLVmyJGU5Ble4Js19+/aZzZs327LjL19TU1OryZKmzUmTJtly1PKZEPBoUgXNoatWrbJlxw+qBJ/Vq1enNB/y/IoVK5IBMlNg87Hc6NGjzeDBg2sdLER9RhGR+hbbwSNt27YNSomKn4xq4cKFtuLNJqiFHTp0qNZyBAPHb+oDWY6f7UVV+AQy9569evWyf7NFEHLLdu7c2f71DRs2LCgZO0Am3CfG/fPnzwf3ssdyBNFx48bZQEbQdDp06BCUREQaTlWMihw5cqTtq5o8eXLwSO4yNVlGGThwYFAyGQPIvXv37F/6sjJh0AvbT6ZGpsf9H3/80T4Xbh5Ely5dgpIxFy9eDEqp8glsoO9u5cqVdnvCWZuISEOLbVOkG4kY7l9zfU30Cx0/fjx4NJrflBgeMQmCS7pRhf5z2Qqvg6yPEY1RfYRhdY3ojJJp+8PYFgarcJCgfjYRKWexzdioYJcvX24HZdBk5prtCBD0E7n5WWQe4b64hkAfno9Asn79erttLqgRQGjW5FZfyMroq2NfsS/9oMZ2sG9pliQoKqiJSDmoqnlsZCjMQ4sKZASW6dOnB/cSipWx0S+VbjqA8+DBg5R+MH9gCY9v2LChVh9fpu3zn4sasYm6MjaCGQHW5zJezWUTkXJVVWceoemRLI6KnorcDxRR/VSF8Js5mRxNPxePpbuFg0S/fv2CkrHbHA5qYPpBOrdu3QpKxs5Zi8LIxkz8oMb6yc7I2tgeBTURKVdVeUotsheyE5rZqKxL1bTnKn/XrEi/Xz7CWRPI6DI5c+ZMUEo0J4bXTdZaV2ADn+HDDz+075HviFIRkfpUdafUSoeKP9xcV0hTJAhIBE5/4AdB1M+mGL3I1IRwM6jfFMkyJ06cMH//+9/t0H4CEtvFOt1cNso0EZIZuuCza9euZCbqmhD9Cdo0v7rPF7X9UftERKTcVWXGFqUUFTgBhonR/sAQAgnByN0IMFHNoJwHkmAElpk/f74Nou6EzQQ7ApXDe/G8P81g69atyfdwg2Z4nRuQsnHjRvtcOgpqIlKJFNhKjKY8sjEyNwKRCzQOwY8gFR7QwuMEMZb3m/8IkmRXnDWkLizL6bbC78F20LyowCUicaSmSBERiRVlbCIiEisKbCIiEisKbCIiEisKbCIiEisKbCIiEisKbCIiEisKbCIiEisKbCIiEisKbCIiEisKbCIiEisKbCIiEisKbJIzLteT77XlRERKTSdBlpz413jjCgFc/bsU/GvhhZVyvSJS+ZSxVQGyK7IsblFX484Wl9bxrx3Htd2yUaz1i4hkQ4GtCkycONFehDR8IdJc3bhxI+V6ct9++21Qyiyf9Z8/f95ed87duGadiEg2FNgka1ysdMeOHTbIcPHSTz75JHim+FjPunXrkrdbt24Fz4iIZKbAFgOzZs2yfVL1Ye/evWbu3Llm+fLlKVfljqNNmzbZ5lMRqSwKbBWKfqtly5aZo0ePmhkzZqQdaCH569+/v20+JZgvWLBA/YMiFUKjIisMGQSDNqh0w0aMGBGUjDl16lRQyg79WDT5hWV6n0yjE4u1focg7gar5DoqkoOAmTNnmp49eyaDE9nmlStXzO7du83XX39tHwsLfwb6Fy9fvmwOHjxom2JFpDwpY6sAVMZkDGQOZBB+UKOyPXnypG0alNpopt22bZsd0elnXJRHjhxpNm7caJ+L8tFHH9lA5jz11FP2tWvXrrVNv7y3iJQfZWxljEr0zTfftIGMStVHxvDll1/aYBeFDMfp3r17sqmS5e7fv2/LPirwqCzIfx/475UpcyrW+p18MjYXhJzbt2+bq1ev2nLfvn2TUxc4OKA5N12fIUFw6tSpZtCgQSnTHcCyp0+fNgcOHEib+YlI/VJgK1NUyOFMgsr/0qVL5vDhwzkN3CikGS8sn/cqxvrzeQ9/kndNTY0daekjC540aZIt79u3z2zevNmWM+E7GT16tBk8eHCtg42odYhI/VNTZJlq27ZtUDK2qXHOnDlm4cKFtuKM+2jEYiDLckGN6QlRAYdA5vZlr1697N+6kHGuWrXKjBs3zgYyf15fhw4dgpKINCQFtgpAX9C8efPM5MmTg0ekLv5EcCZ7p3Pv3j37t3nz5vZvNhiMsnLlSvt9hLM2EWl4CmxlikENZAcuI6Cfbf78+XZ4P82Uml+VPfrPGOEYdXNZnfubDhkgg0U4VyaDUTjYcEGN74hRnfSziUjDU2ArUwxEYKQjlTJNXq7JzI3Mc/OryBzCfXGSOwaWRCEr40CCfc134Q8eoYmT74ZmSaYqaPCISHlQYCtzBDT6h6hgGTRBFue4IetUvGQSEo19xr7LdNu6dWvw6n8imJEl+wcOZGe8HwcdnIFFg0VEyo8CWwVhJCAVKgNJaPryB5GEh6Gn07lz56DUMOpr/f6oSSZmX7x40T6W7uYfMDgcODjsa7Izsja+g6jXi0h5UGCrQDR50fRFFkdlW9eZ72/evBmUEgNR/Aq7PhRj/Q8fPgxKxgwfPjwoZeaCD+tbv369HfSRK5ftsa81IlWkMmgeW0xQaafr46FiJwC6wQ5UzpxO6vHjx/Z+mzZt7N/w2UuYOxaWabJ1uknW+a7fx+dj0IZDMHdn/O/SpYu9EXx84fXCXw4sx9SK6dOnB4/8U6Z9KiLlS4GtSlDp01+UiX+uSTBqMBeZzveYz/rDoiat+6KW5/Vvv/12nU21da1bRCpHk2bNmr0flCXGrl27ZjOs9u3bmydPnpjWrVsHzyQGRPz1r3+1ZzTxceLgXHAh0nPnzgX3UuWz/rATJ06Yjh072jln/vJkYdevXzd/+ctfktMjnDt37pj9+/ebRo0a2duvfvUr07Rp0+DZRPb4zTff2PlsvFZEKp8yNhERiRUNHhERkVhRYBMRkVhRYBMRkVhRYBMRkVhRYBMRkVhRYBMRkVhRYBMRkVhRYBMRkVhRYBMRkVhRYBMRkVhRYBMRkVhRYJOKxFn7M53pX0Sql06CLBWH68SNHTvWlk+ePGlWrVply3Hy8ccfJ697F8aFT6OueyciCQpsUjLFvJ6b7+jRoykXD43jtdQU2ETyp6ZIqTi3b98OSonrqcXR+fPnbaB3N645JyLZUcYmJeMyNoLPF198YcuZXL58OatM5IUXXjDz5s2z5d27d9sLmMad3/yqjE0kMwU2KRkX2Mg25s6da8uSHwU2keypKVJERGJFGZuUTDEyNj9TiZLNe9N0OXPmTNOzZ0/z7LPP2sdoHr1y5Yptyvz666/tYz5/vZMnTzarV6+2gzlYbsOGDeaHH34wixYtSj7GgJYdO3bY1ztuAIjbxlmzZpmRI0eabt262efpK7x69ar55JNP6uwrLCRji/r8uaxbpNIoY5NYI5hs27bNznlzlTooE2Q2btxY53y49957LzlCkeUWL15s+/j8x2bMmGEDSJR27dqZBQsW2Ne4oAbKBKv169enbFsx8fndZ/TX4dZdU1Oj+YASOwpsUtYYUOKPDnS3bFBhE0wcshS3vBtZybSBFStW1BlYmFKwb98+W+a1169ft4+xfU737t2DUipeP2jQIPPo0SM77471+wNeCDIEy2Ij0JJtuqkRZGasm21wWRrPse5SBVaRhtCkWbNm7wdlkaKi+QtPnjwxPXr0MEOHDo283b1719y7d8++NuzGjRvm3LlztW7uvVn28OHDthxGptW+fXtbJjNZuXJlcvn9+/ebVq1amT59+pimTZuaxo0bmwsXLtjXgu3q1auXLe/cudNuxzPPPGMfx6ZNm+w29+/fP/m6s2fP2tc548ePT67/wYMH5u2337ZNlqz/xIkTtgl01KhR9vmuXbuaI0eO2OAXxd+e8HrS+f3vf2/3OwjAs2fPtus+ffq0bSYeMmSIad26tWnZsmWtzy9SyZSxScmRDdDsle6WLtMpBOt0TYX0cYX7v7B58+Zk5uKCRrai+uUyOXToUK2+LLI2P3Mr9kRzgq6zZcuWoJTAtrBNTr9+/YKSSOVTYJNYGjhwYFBKTHZOx2WKzZs3t39LJd1ZWP7nf/4nKJlkdlUMNEO6JkiaXaMC8d69e4OSSR4EiMSBApuUHBkT2Ui6W6nnZNHPRmCJurkKvdQVezhbc7777rugVFx+FpyueVMkrhTYRH7hBpOISOVTYJPYox+LuV+Zblu3bg1eXRrpRh0+/fTTQam4bt26FZQSIx9FqokCm8SS37zJxOSLFy/ax9LdSn2+SZpco/zbv/1bUDLm//7v/4JS4ehTc02QTCeImmPHVACH5mKRuFBgk9hywYpsiUnQ6SZQ14cJEybUytqYZ+dPjv7zn/8clGp7+PBhUDJm+PDhQSkzf46dO2m0w7awTQ5nYRGJC51SS0qGwRlg4EQxz+4P996ZTqlF5c38Nb8pjtf7zXRdunQxbdu2NdOnTw8eSYg6hdUbb7xh3nnnHfuYy8AynerKv6Ya6yVzYoTm48ePTZs2bVKCGkF4+fLlwb3aCMqcQcXxPwefgZufgYFlOOuIP0Gb76FFixZ2eL8LtDxO4Es3wEWk0ihjk5KjAvXnraW7+fOuioGKmnM8+gNDCDThdRJwSo0J2QQYTuPFev2gxvZx/slMaFr0m0v9z8FnCGeDYBmG9LsmSfc9sA3u9TzHuhXUJE4U2KTiRFXi6RAMyMbI3MgIw0PfqdDJfvxAUwoEmI8++iglyFLmFFdLlizJKrCQ0fmnA3PYfj5n1H5hYjona+Z5fx1u3UyF8AOmSByoKVIqjt8kSOW8bt06Wy43flNkusEjIlJ8ytik4tCc5hRzJKGIxIMCm1QMmto4kbHri6NZMd0JkEWkeqkpUsoW1xJjYEfnzp3twIvwIA/6zaJOblwu1BQp0jCUsUnZGjx4sB3BR3DwgxqZGgMxyjmoiUjDUWCTsscIPkb+cYFMAtq4ceNSzkwvIuJTU6SIiMSKMjYREYkVBTYREYkVBTYREYkVBTYREYkVDR4Re4oqPHjwQOcNFJGK16RZs2bvB2WpQu68i0OHDjUtW7a0Z6EvNdbZpEkTc+/eveAREZHiUcZW5dauXZs8s/2cOXPspU5KadeuXcnJ1uHrlxWTf9aPsFKuV0QanvrYqhgXonRBjSbIdEGN15FlccvlkjFhrMs/g4h/MuNMirV+EakOCmxVbNq0aUHJmNOnTwel2iZOnGibK7kNHDgweDR3N27cSLke2rfffhuUMstn/VypmkvauBtnLhGR6qDAVqXIfDgXI6j066Npjgtdcn5Hd2HMTz75JHim+FgP12lzt1u3bgXPiEjcKbDFAGfBp08pF1OnTrVnzAfZTX3hHI9z5861V4PO5qrRlWzTpk22+VRE6pcCW4Wi32nZsmXm6NGj9vL+6QZKpDN8+HD712VRUnxcN47mU4L5ggUL1D8oUk80KrLCkAEw6MJdbNOX7TW/yPAIhti3b5/ZvHmzLftOnToVlLJDPxZNfmGZ3ifT6MRird/hIMANVsl1VCQHETNnzjQ9e/ZMBicOCK5cuWJ2796ddtBN+DPQv3j58mVz8OBBzRcUKSFlbBWAypQjfo78yQD8oEZlyeVcaNrLlutbY9k9e/bYskTjIGDbtm12RKefcVHmWnEbN25MjiwN4xI7BDKHpl9eyxQLmo55bxEpPmVsZYxK8M0337SBzPWHORzxf/nllzlfl4yMj+AIAuKqVatsOYwMx+nevXuyqZP13r9/35Z9VOBRWZD/PvDfK1PmVKz1O/lkbC4IOVwX7urVq7bct2/f5NQFDhDIgNP1GRIE6dMcNGhQrauAsywjUg8cOFDyOYQi1UKBrUz5E6cdKu9Lly6Zw4cP5z3wIp8J2YU044Xl817FWH8+7+FP8q6pqanVF0kWPWnSJFtO16Qbxr4fPXq0zZrDBytR6xCR3Kkpsky1bds2KCUyK4LQwoULbcWXb1DLdkK2JLIsF9SYnhAVcAhk7rvo1auX/VsX9jtZMlcBJ5CRsTkdOnQISiJSCAW2CkBfzrx588zkyZODR/LDAAgn04RsMSkTwTNNh3Dnu2zevLn9mw0OMFauXGm/z3DWJiKFU2ArUwxK4OjeHdHTzzZ//nw7vJ/mxFznR5GBuEEn9TUhOy7oP2OEY9TNZXXubzrsfwaLcK5MBqNwsOKCGt8xozrpZxORwimwlSmaCRnpSKVKk5Vr8nIj69z8KI78w31xUWbPnp2sSOtzQna1YGBJFLIyDkT4rvgu/cEjHGDw3dIsyVQFNQ2LFIcCW5kjoNG/QwXJoAeyOMcNOafiJBPI5OWXX7Z/3ftJ9tjn7PtMt61btwav/ieCGVm2f+BBdsb7cdDCGVj0XYgUnwJbBaH5kAqRgSQ0XfmDSMLDyH00gREEUWjfWufOnYNSw6iv9ftNtUzMvnjxon0s3c0/4HDcPgffFdkZWRvfYdTrRaQ4FNgqEE1WNF2RxVFZ0qSVCVkdyBbymZB98+bNoJR4L7/Crg/FWP/Dhw+DkkmeTqwuLviwvvXr19tBH7ly2R7fVSEjWkUke5rHFhNUulF9NP6E7LpOO5UOFTsB1PXRUTlzOqnHjx/b+23atLF/w2c/Ye5YWKbJ1ukmWee7fh/7h0EbDgcD7oz/Xbp0sTeCjy+8XvjLgeWYmjF9+vTgkX9K952ISGkpsMUcZ5h3oyELuUI2lT79RZmEz1XJqMFcZAq8+aw/LGrSuy9qeV7/9ttvZ2zqRbbn6RSR0mvSrFmz94OyxAwZw3/+53/aMtlRIeeFvHbtmn2P9u3bmydPnpjWrVsHzySaOP/617/aM6L4/Hlz2eBCpOfOnQvupcpn/WEnTpwwHTt2tHPO/OXJwq5fv27+8pe/2Pfy3blzx+zfv980atTI3n71q1+Zpk2bBs8mssdvvvnGzmfjtSLS8JSxxZifoWjAgohUCw0eiSn6h/wJ2QpqIlIt1BQZUy6o0bzH9b/UTCYi1UJNkSIiEitqihQRkVhRYBMRkVhRYBMRkVhRYBMRkVhRYBMRkVhRYBMRkVhRYBMRkVjRPLYi4Az6ePDggc7wISLSwHTmkQK5y8IMHTrUtGzZ0p5oV0REGo6aIgvkX7Ry586dQSnh448/tpduyfXyLZWCoO4+X9S110REGoICWwG4LIw7ez5NkLqopIhIw1NgK8C0adOCkjGnT58OSiIi0pAU2PLEZWEGDx5sy1wW5vjx47YsIiINS4HtF7NmzbL9YbmYOnWqeeqpp2z5/Pnz9q+k2rRpU3LEqIhIfanawEb/GAMejh49ambMmGF69+4dPJMdN2jk+++/Nzt27LBlScU14RgxunfvXrNgwQKb5YqIlFrVzWMjgxg7dmzyQpy+ESNGBKXMyPAIhti3b5/ZvHmzLYeRBbqAyXtTuRMQXQV/+/Ztc/LkyToDI0F45syZpmfPnsllCahXrlwxu3fvzjhoxd8GsNy3335rrl+/bvbs2WPvZ8L6Fi9enLLuy5cv2/W2bt3aBi4cO3bMrFu3zpad8GjQR48e2WW58Knm+4lIqVTFPDYq5NmzZ5ulS5eaMWPGmE6dOgXPJCrbs2fPmu3bt2d9lem5c+ea9u3b22U/+OAD+zfK+PHj7evQqFEj89Zbb9m5bg6BYcCAAeb5559PO/iEIPree++Zrl27pixLuXv37ub11183N2/eTLvt8+bNM02bNg3uJZbj8/fp08duX6ZlCagExh49eqSsm+VfffVVG5jZfnCl7nPnztmy8/DhQ9O8efPk/mY7+ByjRo0yQ4YMsd/LpUuX7HMiIsUS68DGUPz58+fbQESG5lfOZAxkDu+++64NKtkGNTK+iRMn2jIBkabMdPzA1qJFC/PkyRNz4cIFO9jk559/Tj5HgGJ77t27Z+87bP+SJUuCe4kM789//rMNIgQMAiPBgiDzxz/+MTLAPvfcc/b17sZ66RtkObfsF198UWvdWLNmjencubMt8968jizx7t27Nlh17NjRbgOiAtu1a9fsoJojR46Yxo0bm1atWiVfz2cnKE6ZMsVuI+8ZtQ0iIrmKbVPk2rVrk3PMHJrByBAOHz5cZxNcOv77zpkzJ+tmQIISQcpfL4MrXJNoVJOmv3xNTU2tJkuaNidNmmTLmZpEo9C/SJMsaA5dtWqVLTt8Rj4rCGqrV69OaT7k+RUrViQH0EQ1RUZhudGjR9sRpW5ZJ+oziojkKraDR9q2bRuUEhU3QWjhwoW24sw3qBUyIfvQoUO11kswcPxsEjTTuaBGhhdV4RPI3Hv26tXL/s0WQcgt67Iy37Bhw4KSsVlpuE+M+/mMBmU5gui4ceNsIPOzzA4dOgQlEZH8VcWoyJEjR9q+psmTJweP5IcBHE6uE7IZGZiLgQMHBqXM0wlc8x1Nk5nQhMrnJ1Mj0+P+jz/+aJ/r1q2b/evr0qVLUDLm4sWLQSlVvtMcOEBYuXKl3Z5w1iYiUqjYBraNGzfa7MBlBDT50d9G9kETW67zq8igXLNhfU/IZgSmOydj+OayOn/ko8M281n5zIxe5PPT/EjzJfddQIsKLn6gDGdr+WBbGAiza9cus23bNnuw4dbLd0T2euDAAXtfRKQQsQ1sNBMuX77cBgWavFyzG5UpzYlufhWZg2tezIRRla4iLscJ2fTh+Qgk69evt5/NDyAEZW71hayM4Mq+5rvws0O2g++GZkmaRnWuTREphqqax0aWxjyyqEBGYJg+fXpwrzYqZoIFATLbJs3wPLYwtifdPDD/OTKmupo+w9eC8weW8PiGDRtq9fFl2j7/uXSDZDJtP9w+8xFcNZdNREqpqs48QvMhWRwVNRWxX9FH9TM5NKG5Crq+TnbsN3UyOZp+Lh5LdwsHiX79+gUlYz9zOKihXbt2Qam2W7duBSVjpwREcefKTMcPaqyf7Iysje1RUBORUqmqwOaQfZBdkHlR2dbVNEd/EMg2OFtHfXGVv2tWZNBFPsJZE8joMjlz5kxQSjQnhtdN1ltXYAOf4cMPP7TvUciIVBGRbFXdKbXSoeLOp7ktk0KaIkFAIvD6gzsIwn42xehFpjaEm1H9pkiW4cref//73+3QfgIS28U63Vw2yjQRkhm64MNAD5fJuibE+/fvmzZt2tiBNDTfus8Xtf3p9qmISClVZcYWJV0F7Cp+1PeoPQIME6P9gSEEErbJ3QgwUc2oZJYEI7AMIyIJojQFcp9gR6ByeC+e96cZbN26NfkebtANr3MDUhh5momCmog0BAW2DMg43BB/mtQaoqJmvWRjZG4EIhdoHIIfQSo8IIbHCWIs7zf/ESTJrjhrSF1YdtGiRbXeg+2geVGBS0TKkZoiM/BPn6UBDyIilUEZWxr0b/kTshXUREQqQ1VctiYfLqhx1nrmXGV79n8REWlYaooUEZFYUVOkiIjEigKbiIjEigKbiIjEigKbiIjEigKbiIjEigKbiIjEigKbiIjEigKbiIjEigKbiIjEigKbiIjEigKbiIjEigKbiIjEigKbiIjEigKbiIjEigKbiIjEigKbiIjEigKbiIjEigKbiIjEigKbiIjEigKbiIjEigKbiIjEigKbiIjEigKbiIjEigKbiIjEigKbiIjEigKbiIjEigKbiIjEigKbiIjEigKbiIjEigKbiIjEigKbiIjEigKbiIjEigKbiIjEigKbiIjEigKbiIjEigKbiIjEigKbiIjEigKbiIjEigKbiIjEigKbiIjEigKbiIjEigKbiIjEigJbBh9//LE5deqUvZWjN954I7l9y5YtCx4VEaluCmwiIhIrCmwiIhIrCmwiIhIrCmy/mDVrlu1Pk1SbNm2y/XgiIpWkagPbCy+8YAdcHD161MyYMcP07t07eEac/v37m3feecfs3bvXLFiwwDz77LPBMyIi5atRq1atngTlqkAGMnbsWFtph40YMSIoJZDFuYDHcwTCl19+OVnBf/XVV+bKlStm8+bN9n46BNGZM2eanj17Jpe9ffu2uXr1qvnkk0/M999/bx+LwusXL16csuzly5fN7t27TevWrW3gwbFjx8y6detsmfVt27bNllnP9OnTbTkK2SqBHSdPnjSrVq2yZYRHgz569Miu++DBg+bzzz8PHhURKS9NmjVr9n5Qji0CwuzZs83SpUvNmDFjTKdOnYJnEpX12bNnzfbt282dO3eCRxPGjx9v2rdvb8sdO3a0AbFly5b2PniuT58+5rXXXrPvwXuFETgITD169EhZlqDUq1cvu46bN2/WWjcIUATX8LJs/6uvvmqD1oABA+xjN27cMOfOnbPle/fumZdeesm+jvV8/fXXke+PqVOnmq5du9pyeB88fPjQNG/ePLm/mjZtal87atQoM2TIELtfL126ZJ8TESkXsQ5sr7zyipk/f76ZO3euzdD84EDGQebx7rvvmtOnT0dW/H5go4L/xz/+YS5cuGAztbt375p27drZyp7gQYV/4sQJ+1qHwERQe+qpp+x9MrMzZ87Ydf2SKdvtYXm2jewoHBjXrFljOnfubMs898UXX9gMkXUTbAi2rBt+YMPTTz9tBg0aZMtNmjSxnzHKkiVL7DawbRs2bAgeTbh27Zo5fvy4OXLkiGncuLHdZrc+9gtBdcqUKea5556z20RAFRFpaLFtily7dq0NbD6a0cgwDh8+nLH5z/GbIglmK1asSFmO9+cxF7jmzJljsyPH3wbWvXDhQlsG2c769etNt27d7P19+/alNGmyHMuDoLZ69eqU5r/wuv2mSIe+MdbD8uPGjQse/Sd/HeFmyHRYZvTo0Wbw4MHJdTs1NTVmx44dwT0RkYYR28Ejbdu2DUqJSpugQ2Ch4s0mqIVRaYeXI9CcP38+uGfMiy++GJQS/H68LVu2BKUE3uvQoUPBPWP69esXlBKGDRsWlIwd4BLu0wqvOwoZHghANImGEaAcsrNssF4CIIGSfeJnmR06dAhKIiINpypGRY4cOdLMmzfPTJ48OXgkd+HA4vjBhb4wh2ZIl9HQF+Zncg4ZlRMeldmlS5egZMzFixeDUqq6AtuBAweCkkn2xfl+/etf278EJ39b6sJnW7lypd2f4axNRKShxTawbdy40QYjl1GQPdHfRvZD81up52d17949KCUCR67o03PSBdW6EExpAgWfn4DkUHbNoO41mdCkSda3a9cuO+KSgwUX1Ph8NIX6gVREpKHENrBRqS9fvtwOZfebEamM6Sdy87PIPLifLze4A4wiLDeM1nR++9vfBiVjR1U6X375ZVCqjayMAwH2FfvSBUPQ78i+pVmS/r2orFREpL7FvimSgEa/GhX0hx9+mJL9kIWQeVBxk4nk4ze/+U1QSm0yvHXrVlBKBNNC+JlWrghILqgPHz7c/oVrmszUDMnjZLl+4Of17EMOGhhtqsEiIlJuqqKPzWHoOhUyA0loOvMHg/iZSLao8F2lz3v5QZPsxTVB8t5Rwcnv8yP78fmB0c+ufIxMzIYbREIgd02wbmBLpmZIXu/w+cjOyNrYh/k2j4qIlFpVBTaHoEPTGYGFyjocVLJBgGC4vUPfXZgfNBi84iNoTJgwIbhn7Pw0H/PdHLYzHBgJqNkGNr/vi6zND6iZmiFBACPTZZl8R5SKiNSnqjulVjoEjnAfkT+PjQwPLVq0sKMJ/QzPNc2F8Z4MYnFNkQQFsifeg+H9LiPicQJfOGjQPOrWQ/ZHoLx//75p06aNzbgYbelvX3gem48TGrOMex+XaRKw0gWrqH0iIlLuquKUWtmIOmuGf+YRTn/FjdGO7uwbIKCkm9jMe/6yf20/HGf34Ewj7j3cWVAINOkGXvzv//6vbYZkWW6c3YTl+ct9zprisr7wmUfC3JlI3PuAAPeHP/zBlqPoTCIiUomqsikyW999912tbIZARNMlZwqhry5TlgSa7xYtWmSzOv+9yLYIivRZpeuv4vGoZQlINA/mkk35g0gcnedRROJITZFVxjWvEqCjTrMlIlLplLFVESZYuz65dCdFFhGpdMrYqgCDVLhsD5fdAU2SUYNVRETiQIEthlwgY5AKIzL9EZw0QYavFCAiEicKbDEVvvo1GLCydetWBTURiTUFtpgisLmJ55zFhJGUnHlFRCTuFNhERCRWNCpSRERiRYFNRERiRYFNRERiRYFNRERiRYNHREQakLtG4oMHDzQVp0h0dn8RkQZCUHvnnXfM0KFD7RU/Tpw4ETwjhVDGFmP+9eRGjBhh/0p2/H0XxpUVNCew4bmggLquR1iu1q5dm7w2IlcL8a/Yod9v/tTHJnXigqMLFiywl75h4jc3fnSlRKXl1rVs2bLg0drYDvc6kUrC78oFNZogS3VR34b4/TY0BTZJi+DCD2Dbtm1m0qRJySt+V4Pz58/bLMDd3FlcRIpl2rRpQak0V9uo5t+vApuk1b9//5TmuGq6GgAXiKVpy904LZlIsRBkBg8ebMscNJWiabuaf78KbDHAddZK1bTA1QBoJvnoo4/M5MmTg0ezs2nTJnvUKBJn+fz+pk6daq+8AVoHSqVaf78KbBWKdnP6no4ePWpmzJiRdqBDIQ4cOGDfe/ny5bZ9PlccMdK5z7K08VdTU4jEW6G/v+HDh9u/ZFG0DpRCNf9+FdgqDEdQHEnRbs6FQ91RXzbCHci7du2yR5vp0JldjOYLfhC08dfU1KSMAqsvVEKsN/zZqZhK/WPlSN6tkxvbwPdX6oqCz+bWyXrcdrB+9j/7xH8s6v/ALZ8uG/HXEXVk797fLc/rc/n/A9se/u7Yf7n8DxXz+y/k9+fwmd16c+lbq9bfbz4U2CoA/1jun5ojKI6kHJoaTp48aY/KMuEHEO5A5gKkHNGtXLkyeKS4aP7gcjkOlQA/Cn4cVHZ1VWrFwDo2btxo1xv+7FRM/FhL+UP1L/IKtoHvz1UU9VFJvPfee8mMgvUvXrzYXkHdf4z/AwJAKbRr187+/7K/c/n/Y3vcPvKXY/+tWLHCdO7cOXgkvWJ8/yxX6O/P5/rWWHbPnj22XJdq/f3mS4GtjLl/In584X9q124+btw4s2rVqjrPWMCPiaM3foThUX4jR44sSaVGRbBw4ULbtr9v3z57oVOHSpUfJU05HDmXYv28J+t2R9V8fj47+8AdyfIcFb2/b4uJI/Lw6EoqNLBuKuhSBRQf86D4DsBnvX79un3Mr7i44nopsD6a3nL9/1u0aFHyu3N9RSzr/tdZLpNCv/9i/v4cMj53QEHfmtuOulTj77cQOvNImeIHNXPmTNO1a1fTtGlT+xiV0GeffWbWrFljDh48aK5du2YfT2f8+PGmffv2tkzFwD8p/4jnzp0zhw8fNi+99JLp1KmTff6nn34yFy5csOVM2CbcvXvXvkc2WDfvvX//fts80qRJE9OxY0f7ubj16tXLTJgwwTRq1MhcunTJLtOzZ097Ngb8/PPPpm/fvvZ++MbrOGMDdu7caf86v//9702PHj1smX03e/Zs+9kJNjTlDBkyxLRu3dou37hx44yfn3WxnTh79qy5ceOGLdeF9fk39tmnn35qPz/vx+dv1apV0Yd7+9vLfmF7n3nmGfs4aE67d++ezT7Sfa66vuu69on///fNN9/Y7yPb/z+CihsOz//P6tWr7edgWc7OcfPmTZtxud8G6+Y5XyHffzF+f1F+97vf2fcEE/35DtKp5N9vQ1PGVqbatm0blIw9SuOsBPxj09Gc7VGe79ChQ7WW48jPccGh1Diy5QiXI12OhPnROB06dAhKqTg6pBKLumXKtPwmoy1btgSlBPYF+8Tp169fUKofTCFw30c2TWrFVqrJwOkQjHL5/xs2bFhQMrYyD2dE3K9rNGEh33+xf38gq3HNnmx/Lt9BJf9+G4ICWwWgqYE+kVyH6/poVigX/MDpF/CbiYqNdbj3pgklqhLx94lrHioVmqD4vDTb0F/D/R9//NE+F+6Hi6Nc//+6dOkSlIy5ePFiUEqVKbAV8/svxu8PLltCrhl6tf1+C6XAVqbo8OboyB0RcfQ5f/58e/RKM0nUKLRyRmZFZzMjuRhRRmXhfhR8Ro4+GZ4chefoD4q6+X0NPr+/yD+qrE98Zr4rvjMGHfD9kWXSX8N9F9DKtXJoSM2bNw9KiSwhV4V+/8X+/fG/4DJI/mcr7Vyjhfx+G4ICW5niCJORVnTQkvK7Zgj+mWjOcPNLOHJyzRvliKM6KgK2lc/iZyf8wPlsNGvQNFffzWOlREWwfv16+934FQCfOV0wlvJR7N8f/Xvu/6CUE7KLrVJ/vwpsZY4fFO36/IPR2ewfvVJ5cuTEPx5HUuWGHwNHuf4Pn8qdz0ClMXfu3JJNTvVPgeUqlPrEmSVcJcDn5fujAuAzc8uUbVYKv7mwlGj6ylWxvv9i/f5efvll+9e9XyVoyN9voRTYKgjNF/xD0ZFN6u+OIlGO/TT88B22laM7jvr4DH4FUQocPbpmJPZNVOVIZeUUO8j4gxH4vP535TC/q5KVMrD5genVV18NSqncfLAopfj+8/390YTnfgvFHv1aSg35+y2UAlsF4kdL6s8Pk3+2cj7y5wfAkS7bytFdVAVfKv4cLTr/ffxoGaLsXLlyJShFe/jwYVAyydMhZcuvIBwGkJQ7FxgYWBFubvMr61I4c+ZMUEoEoHBgYnsyBTYU8/v35fr7I6sD+zPbCdnloiF/v4XQPLYKx7wR5qPwDxieE+PPgwnP8YI/VyxqHhCV15gxY+xr3M3NW3ry5ImdI+Q/F16ebeKHHJ7flI26ts3J9Bnv3LljXn/9dTvXhvk+//Ef/2G3edSoUfazuYyDH+t//dd/JSvyKFy231WEzENiDpSbWzdlyhQ7P4mmG+df//VfTZ8+fWz5xRdfNP/yL/9ij+r//d//3TbhDBs2zFbebn8yL+jpp5+268m0Hdliu8JzzPx96vZV1Oscsk4354qsieX53Hxe/i8YBu8GaTC3if3sb38h/398d6+99pqdZ8b78j2yPTTp8b5sA6Md3ftH/Y8U8/tPJ9PvDwwyYb347//+b/PHP/7RlrNRyb/fhqaMLSZK0XHLEXF43pjDEW+655xSbFMuWD/BxlVYbps5gnbZBs9t2LChziNR3osfuuPPrWO0Wzh7oUJw6+W19FUw4ICmHO5zlO9nFLwPzw8cODB4pOFRmbrPQD8V+819XoLa48eP7XMggyr29m/dujVl/ayD9fOX+4xczKSY339d0v2vsz6nvkcNVvrvtxAKbBJrNJ9waiaCkl95cbRPPwmBxg9YmdC3wDL+qYVAkOI9/ODGutx7R62XU2mVOyo2t+9ccOCzsP1M0vWbZ0uB9UZ9dxwQ0DyWTcVbzO8/VzSfuiH+rKOSA0WladSqVasnQVlERIqE0ZKub7ISBlzEiTI2EZEiI3v3J2QrqNUvDR4RESkyF9QYeMEJkxnIIvVHTZEiIhIraooUEZFYUWATEZFYUWATEZFYUWATEZFYUWATEZFYUWATEZFYUWATEZFY0Ty2InCXiefM5jrDgIhIw9KZRwpEUOOs5lz2oWXLlubEiRPBMyIi0hDUFFkg/6KT4Wsmffzxx+bUqVP2Vo4Iym77li1bFjwqIlLZFNgKwGUp3Nm7dVkKEZHyoMBWgGnTpgUlY06fPh2URESkISmw5YnLUnCFWnBZiuPHj9uyiIg0LAW2X8yaNcv2h+Vi6tSp9vL0OH/+vP0rqTZt2pQcMSoiUl+qNrDRP8aAiaNHj9rLw/fu3Tt4Jjtu0AiXm+fy81Ib16RixOjevXvNggULbJYrIlJqVTePjQxi7NixyQsB+kaMGBGUMiPDIxhi3759ZvPmzbYcRhboAibvTSB9+eWXkxU8TZhXrlxJu7xDEJ45c6bp2bNnctnbt2+bq1evmk8++cQG13R4/eLFi1OWvXz5stm9e7dp3bq1DTw4duyYWbdunS2zvm3bttky65k+fbotR/H3xcmTJ82qVatsGeHRoI8ePbLr5sKLmu8nIqVSFfPYqNBnz55tli5dasaMGWM6deoUPJOobM+ePWu2b9+e9VVu586da9q3b2+X/eCDD+zfKOPHj7evQ8eOHW1AZa6bw3N9+vQxr732mt2GqPchcBCYevTokbIsQalXr152HTdv3ozcdgIUwTW8LJ//1VdftUFrwIAB9jGu9Hvu3DlbvnfvnnnppZfs61gPoz3T7RuaZLt27WrL4X348OFD07x58+T+btq0qX3tqFGjzJAhQ+z3cunSJfuciEixxDqwMRR//vz5NhCRofmVOxkDmcO7775rRzRmG9TI+CZOnGjLBCOaMtPxAxsV/D/+8Q9z4cIFm6ndvXvXtGvXzlb2BA8q/PDkbgITQc315ZGZnTlzxm7rL5m2/Twsz2cjOwoHxjVr1pjOnTvbMs998cUXNkNk3QQbgi3rhh/Y8PTTT5tBgwbZcpMmTdKO+lyyZIndBrZtw4YNwaMJ165ds4Nqjhw5Yho3bmy32a2P/UJQnTJlinnuuefsNhFQRUQKFdumyLVr1ybnmDk0g5EhHD58OGPzXSb++86ZMyfj3DW/KZJgtmLFipT18j485gJX+P38dbHtCxcutGWQ7axfv95069bN3g83ibIcy4Ogtnr16pTmv/C6/aZIh74x1sPy48aNCx79J38d4WbIdFhm9OjRdkSpW7dTU1Oj/koRKVhsB4+0bds2KCUqXYIGgYGKM9+gRgblAk2uE7KptMPr5T38EZUvvvhiUErw+wG3bNkSlBJ4r0OHDgX3jOnXr19QShg2bFhQMjarDPdphdcdhQwPBCCaRMMIUA7ZWTZYLwGQQMk+8bPMDh06BCURkfxVxajIkSNHmnnz5pnJkycHj+SHARxOrhOyw4HF8YMLfWEOQdRlNPSFRQVRMionPKqzS5cuQcmYixcvBqVUdQW2AwcOBCWT7Ivz/frXv7Z/CU7+ttSFz7Zy5Ur7fYSzNhGRQsU2sG3cuNEGE5cRkP3Q30b2QvNZrvOraJJzGVR9TMju3r17UEoEjlzRp+ekC6p1IZjSBAo+OwHJoeyaQd1rMmH/kfXt2rXLjrjkYMMFNT4fTaF+IBURyVdsAxuV8vLly+1QdL8ZkMqU5kQ3v4rMwTUvZsKoSlcRF3NCthvcAUYRlhsGyDi//e1vg5KxoyqdL7/8MijVRlbGgQT7mu/CBUNwgMB3Q7Mk/Xu5NO2KiKQT+6ZIAhr9alSwH374YUr2QhZB5kDFSyaRCfPP4N6vWH7zm98EpdQmw1u3bgWlRDAuhJ9p5YqA5A4K/CsZuKbJTM2QPE6W7B848Hq+Aw46GK2qwSIiUmxV0cfm0HxIhcpAEpq+XIUNP5MIowmNIIhinuyYCt9V+myLH3TJXlwTJNsWFZz8PkOyH58fGP3syufOdVkXN4iEfeCacF2zbKZmSLfPwOcjOyNr4zvIt3lURKQuVRXYHIIGTV8EBirbcFAII6sDgWbPnj22XCgCBMPtnaj5cH7QYPCLj6AxYcKE4J6x89N8zHdz+JzhwEhAzTaw+X1fZG1+QM3UDAkCGJkyyxQyIlVEJFtVd0qtdKj4o/p4CEBRp53Khj+PjWXRokULO5rQzxBd01wY28QgGNcUSVAge+I9GN7vMiIeJ/CFgwbNq249BGUC5f37902bNm1sxsVoS3/7Mn02TmjMMu59XKZJwEoXrNLtUxGRUqrKjC1KugqY02A5hYza4324kf35QY2AEhXUwDbRT+WaJAlk7j1cUOM5zvgRFVy2bt2aXNYNmmF5/nKfoJktN4jEvQ8IcOmCGhTURKQhKLBlQMbh+pLIqnKtqL/77rtaFT+BhqZPzhRCX19dGSDNd4sWLbLr99+LbIugSJ9Vuv4qHo9aloBE82Aun8cfROLoPI8iUo7UFJkBoyVddqIBDwmueZUAHXWaLRGRhqaMLQ2a+ly2RoaloJYYHer65Io5OlREpJiUsaVBpjYsON8iIwyrObAR5Jmg7vobaZKMGqwiIlIOFNikFhfIOK0Xg0X8wS40QYavFCAiUk4U2CRS+OrXYMAKIy0V1ESknCmwSSQCm5u4zllMGElZ6hM/i4gUgwKbiIjEikZFiohIrCiwiYhIrCiwiYhIrCiwiYhIrJTF4BF3ja8HDx5oKLmIiBSkSbNmzd4Pyg3CXRZm6NChpmXLlubEiRPBMyIiIrlr8IzNP9EwZ7v3zzjvX89sxIgR9m+l8Lc9jDPra06YiEhpNGgfG5eFcUGNJshSXb+L9ZAZcnPXMRMRkXhq0MA2bdq0oFTas8VPnDjRNndyGzhwYPBoaZ0/f95eL83d3Fk8RESktBossJE5DR482Jap9OPWNMcFQrmIqLtxWioRESm9ogQ2rtNFn1Iupk6das8cD7IbqW3Tpk3JEaMiIpKdvAMb/VbLli0zR48eNTNmzEg7UCKd4cOH279c04vsRmrjQqc0n+7du9csWLBA/YMiIlnIeVQkGQQXnHRXl/ZlO3KRDI9giH379pnNmzfbclh4VCSVOwHRVfBcRuXkyZORgTHqsiuZ0A9Gk6FD0HYX1pw8ebK9BhnbQiDesGGD+eGHH8yiRYuSjxHgMwVo//2yHRUZ/gxcC42z7B88eFDz/URE0shqHpu78OTSpUvNmDFjTKdOnYJnEpXt2bNnzfbt282dO3eCRzObO3euad++vV32gw8+sH+jjB8/3r4OjRo1Mm+99Zad6+a0bt3aDBgwwDz//PO1Bp/MnDkzKGXnxo0b5ty5c8E9Y+fV9erVy5bJTvv162fLrJ+gTkDzH2M7CDb37t2zj4X578f+Yn11efjwoWnevHlyfzdt2tR07drVjBo1ygwZMsR+L5cuXbLPiYhIQsbAxlD8+fPn20BEZe4HFSpxMod3333XBpVsgxoZH6MUQQVPppOOH9hatGhhnjx5Yi5cuGAHm/z888/J57jScziodOzY0QYPbv5red2VK1eSz7kbmRB/HT8Q/e1vf7MjOH/Jbk2fPn3sfmDb582bZ1566aVk4Ll69WrKe/jyCWzXrl2zmd2RI0dM48aN7foJ5uDzEEynTJlinnvuOXP37t20QVVEpJqkDWxMnCbrIUMgUwCV/2effWbWrFljgxoVb65+97vf2fcETXKZKmM/sJHVLVy40AZCMqvDhw+nBJWffvrJBj2H17hb3759k0Hl008/NTU1NSnPcwsHGj8Q7dy50z7/zDPP2MfBwA62nYCfTcDKJ7A5fHY+2/79++1cvyZNmtjAzffCjfedMGGCzWqVwYlItUs7eKRt27ZBydh+LM4KQmChH4k+pXwUMiH70KFDtdZLv5jjZ5P1oVSTyevCflu1apUZN26cDdB+M26HDh2CkohI9cpqVOTIkSNtsxuDKArh93vlOiGbkYGSwAHCypUr7ffhpkyIiEhC2sC2ceNGmx24jIAmN/rbaAqkmTLX+VUMdHAjKeM4IbvU2H+MJt21a5fZtm2bPdhwQY3viOz1wIED9r6ISDVLG9hoalu+fLkdlk+Tl2sGpDKlOdHNryJzcM2LmTCqUhOyc0dWxoEE+5rvolu3bsEziQMEvhuaJZmq0FDNoyIi5aTOpkgCGv1qVLAM9iCLc8giyByoeMkkMnn55ZftX/d+UjeCGVmyf+BAdsZ3wEEHo1W1L0VEUmXVx+bQfEiFykASmr78wRx+JhFGExpBEKU82XE2OnfuHJTKn9tnYF+TnZG18R34BxgiIvJPOQU2hyYvmr7I4qhs6zpzPVkdyDb27Nljy/Xp5s2bQSmxLX7AqC9Mtnbc6cSyQQAjU2ZfFzIiVUSkWuQV2HxUtjSJkcVFYZCJy+bI1hqiYubUVG4QDNuyZcsW2zfIaa640ZTKrZT+9Kc/BaXExHdOF+bWz5y4qFGf7FOyMw20ERHJXsGBzUk3cMGdHxENNWov3K/n+gbZNm4EmmwGwBSC/eM3H3JKLrd+RotGZZEaDCIikruiBbYozLdyQ/yp1BuyoiYjIgNiOzh5so9srq7m1GIg+6JvMrx+1s12NUQTqYhI3OR8dv9c0LznMiENeBARkfpQsoyN7MOfkK2gJiIi9SGry9bkwwU1TvbLCZOzPfu/iIhIIUraFCkiIlLfSjp4REREpL4psImISKwosImISKwosImISKwosImISKwosImISKwosImISKwosImISKwosImISKwosImISKwosImISKwosImISKwosImISKwosImISKwosImISKwosImISIwY8//N7DEIPjsd2AAAAABJRU5ErkJggg==;" vertex="1" parent="1">
          <mxGeometry x="-230" y="30" width="630.72" height="540" as="geometry" />
        </mxCell>
        <mxCell id="n09ZO745SL9mN2E3Q5h8-2" value="&lt;font style=&quot;font-size: 30px;&quot;&gt;&amp;lt;html&amp;gt;&lt;/font&gt;" style="rounded=0;whiteSpace=wrap;html=1;" vertex="1" parent="1">
          <mxGeometry x="520" y="510" width="120" height="60" as="geometry" />
        </mxCell>
        <mxCell id="n09ZO745SL9mN2E3Q5h8-3" value="&lt;font style=&quot;font-size: 30px;&quot;&gt;&amp;lt;head&amp;gt;&lt;/font&gt;" style="rounded=0;whiteSpace=wrap;html=1;" vertex="1" parent="1">
          <mxGeometry x="520" y="450" width="120" height="60" as="geometry" />
        </mxCell>
        <mxCell id="n09ZO745SL9mN2E3Q5h8-4" value="&lt;font style=&quot;font-size: 30px;&quot;&gt;&amp;lt;title&amp;gt;&lt;/font&gt;" style="rounded=0;whiteSpace=wrap;html=1;" vertex="1" parent="1">
          <mxGeometry x="520" y="390" width="120" height="60" as="geometry" />
        </mxCell>
        <mxCell id="n09ZO745SL9mN2E3Q5h8-5" value="&lt;font style=&quot;font-size: 30px;&quot;&gt;&amp;lt;/title&amp;gt;&lt;/font&gt;" style="rounded=0;whiteSpace=wrap;html=1;" vertex="1" parent="1">
          <mxGeometry x="710" y="130" width="120" height="60" as="geometry" />
        </mxCell>
        <mxCell id="n09ZO745SL9mN2E3Q5h8-6" value="&lt;font style=&quot;font-size: 30px;&quot;&gt;&amp;lt;/head&amp;gt;&lt;/font&gt;" style="rounded=0;whiteSpace=wrap;html=1;" vertex="1" parent="1">
          <mxGeometry x="1150" y="240" width="120" height="60" as="geometry" />
        </mxCell>
        <mxCell id="n09ZO745SL9mN2E3Q5h8-7" value="&lt;font style=&quot;font-size: 30px;&quot;&gt;&amp;lt;boby&amp;gt;&lt;/font&gt;" style="rounded=0;whiteSpace=wrap;html=1;" vertex="1" parent="1">
          <mxGeometry x="1150" y="180" width="120" height="60" as="geometry" />
        </mxCell>
        <mxCell id="n09ZO745SL9mN2E3Q5h8-8" value="&lt;font style=&quot;font-size: 30px;&quot;&gt;&amp;lt;/boby&amp;gt;&lt;/font&gt;" style="rounded=0;whiteSpace=wrap;html=1;" vertex="1" parent="1">
          <mxGeometry x="1150" y="120" width="120" height="60" as="geometry" />
        </mxCell>
        <mxCell id="n09ZO745SL9mN2E3Q5h8-9" value="&lt;font style=&quot;font-size: 30px;&quot;&gt;&amp;lt;/html&amp;gt;&lt;/font&gt;" style="rounded=0;whiteSpace=wrap;html=1;" vertex="1" parent="1">
          <mxGeometry x="1150" y="60" width="120" height="60" as="geometry" />
        </mxCell>
        <mxCell id="n09ZO745SL9mN2E3Q5h8-11" value="&lt;font style=&quot;font-size: 30px;&quot;&gt;&amp;lt;html&amp;gt;&lt;/font&gt;" style="rounded=0;whiteSpace=wrap;html=1;" vertex="1" parent="1">
          <mxGeometry x="470" y="-220" width="120" height="60" as="geometry" />
        </mxCell>
        <mxCell id="n09ZO745SL9mN2E3Q5h8-12" value="" style="shape=flexArrow;endArrow=classic;html=1;rounded=0;" edge="1" parent="1">
          <mxGeometry width="50" height="50" relative="1" as="geometry">
            <mxPoint x="500" y="-110" as="sourcePoint" />
            <mxPoint x="500" y="-180" as="targetPoint" />
          </mxGeometry>
        </mxCell>
        <mxCell id="n09ZO745SL9mN2E3Q5h8-13" value="&lt;font style=&quot;font-size: 30px;&quot;&gt;Ejemplo&lt;/font&gt;" style="rounded=0;whiteSpace=wrap;html=1;" vertex="1" parent="1">
          <mxGeometry x="920" y="-140" width="120" height="60" as="geometry" />
        </mxCell>
      </root>
    </mxGraphModel>
  </diagram>
</mxfile>
